<svg id="Camada_1" data-name="Camada 1" xmlns="http://www.w3.org/2000/svg" viewBox="0 0 999.16 187.34"><defs><style>.cls-1{fill:#0e080d;}</style></defs><path class="cls-1" d="M234.41,102.18a42.39,42.39,0,0,1-6.08-22.47,42.39,42.39,0,0,1,6.08-22.47,44.31,44.31,0,0,1,16.39-15.8,46.46,46.46,0,0,1,23.3-5.83,47,47,0,0,1,23.38,5.83,43.65,43.65,0,0,1,16.39,15.8,42.88,42.88,0,0,1,6,22.47,42.88,42.88,0,0,1-6,22.47A43.65,43.65,0,0,1,297.48,118a47,47,0,0,1-23.38,5.83A46.46,46.46,0,0,1,250.8,118,44.31,44.31,0,0,1,234.41,102.18Zm62.32-8.24a29.86,29.86,0,0,0,3.33-14.23,29.89,29.89,0,0,0-3.33-14.23,24.4,24.4,0,0,0-9.24-9.73,27.38,27.38,0,0,0-26.79,0,24.4,24.4,0,0,0-9.24,9.73,29.77,29.77,0,0,0-3.32,14.23,29.74,29.74,0,0,0,3.32,14.23,24.4,24.4,0,0,0,9.24,9.73,27.38,27.38,0,0,0,26.79,0A24.4,24.4,0,0,0,296.73,93.94Z"/><path class="cls-1" d="M354.89,123.81h0a19.16,19.16,0,0,1-19.15-19.15V8.9a7.94,7.94,0,0,1,2.86-6.63A11.53,11.53,0,0,1,346,0a25.25,25.25,0,0,1,4.87.5,14.12,14.12,0,0,1,4,1.35Z"/><path class="cls-1" d="M376.85,102.18a42.38,42.38,0,0,1-6.07-22.47,42.38,42.38,0,0,1,6.07-22.47,44.39,44.39,0,0,1,16.39-15.8,49.63,49.63,0,0,1,46.68,0,43.57,43.57,0,0,1,16.39,15.8,42.78,42.78,0,0,1,6,22.47,42.78,42.78,0,0,1-6,22.47A43.57,43.57,0,0,1,439.92,118a49.63,49.63,0,0,1-46.68,0A44.39,44.39,0,0,1,376.85,102.18Zm62.32-8.24a29.74,29.74,0,0,0,3.33-14.23,29.77,29.77,0,0,0-3.33-14.23,24.45,24.45,0,0,0-9.23-9.73,27.4,27.4,0,0,0-26.8,0,24.38,24.38,0,0,0-9.23,9.73,29.77,29.77,0,0,0-3.33,14.23,29.74,29.74,0,0,0,3.33,14.23,24.38,24.38,0,0,0,9.23,9.73,27.4,27.4,0,0,0,26.8,0A24.45,24.45,0,0,0,439.17,93.94Z"/><path class="cls-1" d="M476.45,83.7q0-15.14,5.41-25.87a38.72,38.72,0,0,1,15.22-16.48q9.82-5.73,23.3-5.74,13.65,0,24,5.66a41.29,41.29,0,0,1,16.14,15.64,44.36,44.36,0,0,1,5.83,22.8,45.09,45.09,0,0,1-5.66,22.63,42.12,42.12,0,0,1-15.31,15.73,41.5,41.5,0,0,1-21.63,5.74,38,38,0,0,1-16.39-3.41,32.1,32.1,0,0,1-11.9-9.4v24.79a19,19,0,0,1-19,19Zm63.07,15.81q7.14-7.49,7.15-19.63t-7.15-19.64q-7.17-7.49-18.48-7.49t-18.55,7.49q-7.25,7.49-7.24,19.64t7.24,19.63Q509.74,107,521,107T539.52,99.51Z"/><path class="cls-1" d="M623.39,123.81a47.72,47.72,0,0,1-23.22-5.49,39.92,39.92,0,0,1-15.72-15.23q-5.67-9.74-5.66-22.71a45.57,45.57,0,0,1,5.82-23.22,42,42,0,0,1,16.06-15.81,47,47,0,0,1,23.38-5.74q16,0,25.88,7.41t9.9,20.22q0,13-11.56,19.47t-36.7,6.49c-1.55,0-3.47,0-5.74-.09s-5.75-.13-8-.25c.88,5.77,5.07,10.38,10.12,13.82s11.4,5.15,19.06,5.15a47.28,47.28,0,0,0,12.57-1.63,14,14,0,0,1,16,7.08l1.07,2a46.69,46.69,0,0,1-9.15,4.33,68.09,68.09,0,0,1-11.82,3.08A73,73,0,0,1,623.39,123.81Zm.33-73.55c-7.32,0-12.2,1-17.22,5.42-.67.6-5.83,4-8.08,15.51a48.78,48.78,0,0,0-.55,17.67c1.88.12,7.65-9.41,9.66-10a33.56,33.56,0,0,1,9.55-1.3c19.2,0,24.28-5.84,24.28-14.61a10.68,10.68,0,0,0-4.91-9.23Q631.54,50.25,623.72,50.26Z"/><path class="cls-1" d="M749.53,96.35q0,13-10.57,20.22t-27.88,7.24a97,97,0,0,1-16.22-1.42,93.06,93.06,0,0,1-15.31-3.82A41.71,41.71,0,0,1,669,113.49l7.16-12.81a54.69,54.69,0,0,0,14.64,5.82,74,74,0,0,0,19.31,2.5q19.63,0,19.63-10,0-8.48-16-10.48l-17-2.16q-12.64-1.66-19.47-7.66t-6.82-16.64q0-13,10.15-19.72t29.46-6.74a79.39,79.39,0,0,1,18,1.83,36.69,36.69,0,0,1,12.31,4.91c3,2.06,4.5,4.41,4.5,7.07a9.44,9.44,0,0,1-1.75,5.16A10.63,10.63,0,0,1,739,58.41a20.88,20.88,0,0,0-7.15-4.08,69.41,69.41,0,0,0-11.32-3.16,65.36,65.36,0,0,0-12.65-1.25q-8.82,0-13.73,2.58t-4.9,7.57a7.31,7.31,0,0,0,3.41,6.24q3.4,2.41,10.73,3.42l17,2.16Q749.53,75.55,749.53,96.35Z"/><path class="cls-1" d="M900.62,123.81h-5.23a13.74,13.74,0,0,1-13.74-13.73V76.38q0-10.65-4.82-16t-14-5.33q-9.83,0-15.06,6.08t-5.24,17.22v45.43h-19V78.38q0-11.14-5.08-17.22t-14.89-6.08q-9.15,0-14.23,5.49t-5.08,16v33.53a13.73,13.73,0,0,1-13.73,13.73h-5.24V70.06A31.26,31.26,0,0,1,769.91,53a30,30,0,0,1,12.81-11.15,44.47,44.47,0,0,1,19.22-3.91q21.63,0,31.45,15.14,9.83-15.13,31-15.14a43.52,43.52,0,0,1,19,3.91,30.37,30.37,0,0,1,12.73,11.07,30.83,30.83,0,0,1,4.57,17Z"/><path class="cls-1" d="M92.25,21.2A11.4,11.4,0,0,1,89,12.88a11.43,11.43,0,0,1,3.25-8.32,11.87,11.87,0,0,1,16.47,0A11.47,11.47,0,0,1,112,12.88a11.43,11.43,0,0,1-3.24,8.32,11.85,11.85,0,0,1-16.47,0ZM110,123.77h0a19,19,0,0,1-19-19V49.05a7.88,7.88,0,0,1,2.83-6.57,11.42,11.42,0,0,1,7.32-2.25,24.85,24.85,0,0,1,4.83.5,14,14,0,0,1,4,1.34Z"/><path class="cls-1" d="M206.56,54.58a33.86,33.86,0,0,0-14.14-12.4q-9.07-4.41-21.39-4.41a48.56,48.56,0,0,0-21.3,4.41,33,33,0,0,0-19.3,31v31.46h19V78q0-23.13,21.63-23.13,10.65,0,16.15,5.91T192.67,78v26.63a19,19,0,0,0,19,19V73.21A33.94,33.94,0,0,0,206.56,54.58Z"/><path class="cls-1" d="M.39,60.42l0,0a6.9,6.9,0,0,0-.35,2c0-.1,0-.19,0-.29a6.76,6.76,0,0,1,.21-1.72v0l.29-.87L19.13,3.62C19.49,1.56,20.73,0,22.21,0L34.86,0c1.77,0,3.21,2.17,3.21,4.85a6.51,6.51,0,0,1-.49,2.57l-15,55L12.22,24.4Z"/><path class="cls-1" d="M.37,60.46l0,0,11.83-36L22.59,62.45l15,55a6.58,6.58,0,0,1,.49,2.57c0,2.68-1.44,4.85-3.21,4.85l-12.65,0c-1.48,0-2.72-1.52-3.08-3.57L.5,65.34l-.29-.87h0A6.89,6.89,0,0,1,0,62.73c0-.09,0-.19,0-.28A6.9,6.9,0,0,1,.37,60.46Z"/><path class="cls-1" d="M998.78,59.89v0a6.89,6.89,0,0,1,.35,2c0-.09,0-.18,0-.28a6.73,6.73,0,0,0-.21-1.71h0l-.29-.87L980.2,3.58c-.36-2-1.59-3.54-3.06-3.54L964.61,0c-1.76,0-3.19,2.15-3.19,4.81a6.66,6.66,0,0,0,.48,2.55L976.77,61.9,987,24.19Z"/><path class="cls-1" d="M998.79,59.93v0L987,24.19,976.77,61.9,961.9,116.45a6.62,6.62,0,0,0-.48,2.55c0,2.65,1.43,4.81,3.19,4.81l12.53,0c1.47,0,2.7-1.5,3.06-3.54l18.46-55.45.29-.86h0a6.73,6.73,0,0,0,.21-1.71c0-.1,0-.19,0-.29A6.89,6.89,0,0,0,998.79,59.93Z"/><path class="cls-1" d="M110,123.77s36.93,4.41,39.42-19.1h-19S132.6,120.27,110,123.77Z"/><path class="cls-1" d="M130.43,104.67s-12.47,8-20.45,0v19.1S132.35,122.9,130.43,104.67Z"/><path class="cls-1" d="M106.89,167.86a8.85,8.85,0,0,1,3.76,3.58,12,12,0,0,1,0,10.94,8.62,8.62,0,0,1-3.76,3.53,12.87,12.87,0,0,1-5.82,1.23H94.68V166.61h6.39A12.74,12.74,0,0,1,106.89,167.86Zm.25,15a8,8,0,0,0,2.09-5.9,8.2,8.2,0,0,0-2.11-6,8.1,8.1,0,0,0-6.05-2.15H97.36v16.14h3.71A8.22,8.22,0,0,0,107.14,182.82Z"/><polygon class="cls-1" points="133.49 168.79 133.49 175.65 140.97 175.65 140.97 177.86 133.49 177.86 133.49 184.93 141.86 184.93 141.86 187.14 130.81 187.14 130.81 166.58 141.86 166.58 141.86 168.79 133.49 168.79"/><path class="cls-1" d="M164.1,186.62a6.06,6.06,0,0,1-2.51-2,5.14,5.14,0,0,1-1-3h2.86a3.81,3.81,0,0,0,1.19,2.43,4.29,4.29,0,0,0,3.05,1,4.45,4.45,0,0,0,3-.95,3.1,3.1,0,0,0,1.1-2.46,2.8,2.8,0,0,0-.64-1.92,4.19,4.19,0,0,0-1.62-1.11,26.22,26.22,0,0,0-2.62-.83,23.19,23.19,0,0,1-3.26-1.06,5.29,5.29,0,0,1-2.09-1.66,4.91,4.91,0,0,1-.87-3.05,5.38,5.38,0,0,1,.85-3,5.67,5.67,0,0,1,2.41-2,8.44,8.44,0,0,1,3.54-.7,7.45,7.45,0,0,1,4.73,1.44,5.33,5.33,0,0,1,2.08,3.83h-3a3.2,3.2,0,0,0-1.23-2.08,4.4,4.4,0,0,0-2.89-.9,4.18,4.18,0,0,0-2.74.87,3,3,0,0,0-1.06,2.43,2.66,2.66,0,0,0,.63,1.83,4.11,4.11,0,0,0,1.57,1.07,24.5,24.5,0,0,0,2.6.84,24.11,24.11,0,0,1,3.27,1.1,5.62,5.62,0,0,1,2.12,1.68,4.88,4.88,0,0,1,.88,3.08,5.43,5.43,0,0,1-.79,2.83,5.89,5.89,0,0,1-2.36,2.15,7.75,7.75,0,0,1-3.68.82A8.83,8.83,0,0,1,164.1,186.62Z"/><polygon class="cls-1" points="196.51 168.79 196.51 175.65 203.99 175.65 203.99 177.86 196.51 177.86 196.51 184.93 204.88 184.93 204.88 187.14 193.83 187.14 193.83 166.58 204.88 166.58 204.88 168.79 196.51 168.79"/><polygon class="cls-1" points="240.39 187.14 237.71 187.14 226.93 170.79 226.93 187.14 224.25 187.14 224.25 166.58 226.93 166.58 237.71 182.9 237.71 166.58 240.39 166.58 240.39 187.14"/><polygon class="cls-1" points="277.23 166.61 269.49 187.14 266.4 187.14 258.65 166.61 261.51 166.61 267.96 184.31 274.4 166.61 277.23 166.61"/><path class="cls-1" d="M299.58,186a9.76,9.76,0,0,1-3.72-3.74,11.35,11.35,0,0,1,0-10.81,9.83,9.83,0,0,1,3.72-3.74,10.88,10.88,0,0,1,10.46,0,9.77,9.77,0,0,1,3.71,3.73,11.56,11.56,0,0,1,0,10.84A9.68,9.68,0,0,1,310,186a10.88,10.88,0,0,1-10.46,0Zm9.09-2a7,7,0,0,0,2.71-2.85,10,10,0,0,0,0-8.62,7.18,7.18,0,0,0-2.7-2.84,8,8,0,0,0-7.77,0,7.18,7.18,0,0,0-2.7,2.84,10,10,0,0,0,0,8.62,7.1,7.1,0,0,0,2.71,2.85,7.94,7.94,0,0,0,7.75,0Z"/><polygon class="cls-1" points="336.63 184.96 343.82 184.96 343.82 187.14 333.95 187.14 333.95 166.61 336.63 166.61 336.63 184.96"/><polygon class="cls-1" points="378.95 166.61 371.2 187.14 368.11 187.14 360.37 166.61 363.22 166.61 369.67 184.31 376.12 166.61 378.95 166.61"/><polygon class="cls-1" points="399.89 168.79 399.89 175.65 407.37 175.65 407.37 177.86 399.89 177.86 399.89 184.93 408.25 184.93 408.25 187.14 397.21 187.14 397.21 166.58 408.25 166.58 408.25 168.79 399.89 168.79"/><path class="cls-1" d="M439.83,167.86a8.82,8.82,0,0,1,3.77,3.58,12.08,12.08,0,0,1,0,10.94,8.59,8.59,0,0,1-3.77,3.53,12.8,12.8,0,0,1-5.81,1.23h-6.39V166.61H434A12.67,12.67,0,0,1,439.83,167.86Zm.26,15a8,8,0,0,0,2.09-5.9,8.2,8.2,0,0,0-2.11-6,8.1,8.1,0,0,0-6.05-2.15h-3.71v16.14H434A8.22,8.22,0,0,0,440.09,182.82Z"/><path class="cls-1" d="M467.86,186a9.71,9.71,0,0,1-3.73-3.74,11.35,11.35,0,0,1,0-10.81,9.78,9.78,0,0,1,3.73-3.74,10.86,10.86,0,0,1,10.45,0,9.77,9.77,0,0,1,3.71,3.73,11.56,11.56,0,0,1,0,10.84,9.68,9.68,0,0,1-3.71,3.72,10.86,10.86,0,0,1-10.45,0Zm9.08-2a7,7,0,0,0,2.71-2.85,9.88,9.88,0,0,0,0-8.62A7.22,7.22,0,0,0,477,169.7a8.07,8.07,0,0,0-7.78,0,7.09,7.09,0,0,0-2.69,2.84,9.88,9.88,0,0,0,0,8.62A7,7,0,0,0,469.2,184a7.92,7.92,0,0,0,7.74,0Z"/><path class="cls-1" d="M513,187.14l-4.89-8.4H504.9v8.4h-2.68V166.61h6.63a8.79,8.79,0,0,1,3.93.8,5.54,5.54,0,0,1,2.4,2.14,6.35,6.35,0,0,1-.43,6.84,6,6,0,0,1-3.66,2.15l5.15,8.6Zm-8.13-10.55h4a4.47,4.47,0,0,0,3.27-1.07,3.88,3.88,0,0,0,1.09-2.87,3.67,3.67,0,0,0-1.08-2.83,4.65,4.65,0,0,0-3.28-1h-4Z"/><path class="cls-1" d="M570.82,167.86a8.82,8.82,0,0,1,3.77,3.58,12.08,12.08,0,0,1,0,10.94,8.59,8.59,0,0,1-3.77,3.53,12.83,12.83,0,0,1-5.81,1.23h-6.39V166.61H565A12.7,12.7,0,0,1,570.82,167.86Zm.25,15a8,8,0,0,0,2.1-5.9,8.2,8.2,0,0,0-2.11-6,8.1,8.1,0,0,0-6-2.15H561.3v16.14H565A8.18,8.18,0,0,0,571.07,182.82Z"/><polygon class="cls-1" points="597.43 168.79 597.43 175.65 604.91 175.65 604.91 177.86 597.43 177.86 597.43 184.93 605.79 184.93 605.79 187.14 594.75 187.14 594.75 166.58 605.79 166.58 605.79 168.79 597.43 168.79"/><path class="cls-1" d="M651.22,186.62a6.09,6.09,0,0,1-2.52-2,5.13,5.13,0,0,1-.94-3h2.86a3.72,3.72,0,0,0,1.19,2.43,4.25,4.25,0,0,0,3.05,1,4.46,4.46,0,0,0,3-.95,3.13,3.13,0,0,0,1.1-2.46,2.81,2.81,0,0,0-.65-1.92,4,4,0,0,0-1.62-1.11,25.4,25.4,0,0,0-2.62-.83,23,23,0,0,1-3.25-1.06,5.15,5.15,0,0,1-2.09-1.66,4.91,4.91,0,0,1-.87-3.05,5.3,5.3,0,0,1,.85-3,5.58,5.58,0,0,1,2.4-2,8.46,8.46,0,0,1,3.55-.7,7.47,7.47,0,0,1,4.73,1.44,5.36,5.36,0,0,1,2.07,3.83h-2.94a3.17,3.17,0,0,0-1.24-2.08,4.4,4.4,0,0,0-2.89-.9,4.14,4.14,0,0,0-2.73.87,3,3,0,0,0-1.06,2.43,2.61,2.61,0,0,0,.63,1.83,4,4,0,0,0,1.56,1.07,25.63,25.63,0,0,0,2.61.84,25.12,25.12,0,0,1,3.27,1.1,5.51,5.51,0,0,1,2.11,1.68,4.88,4.88,0,0,1,.89,3.08,5.44,5.44,0,0,1-.8,2.83,5.86,5.86,0,0,1-2.35,2.15,7.77,7.77,0,0,1-3.68.82A8.79,8.79,0,0,1,651.22,186.62Z"/><path class="cls-1" d="M685,186a9.76,9.76,0,0,1-3.72-3.74,11.35,11.35,0,0,1,0-10.81,9.83,9.83,0,0,1,3.72-3.74,10.88,10.88,0,0,1,10.46,0,9.84,9.84,0,0,1,3.71,3.73,11.56,11.56,0,0,1,0,10.84A9.75,9.75,0,0,1,695.5,186,10.88,10.88,0,0,1,685,186Zm9.09-2a7.1,7.1,0,0,0,2.71-2.85,10,10,0,0,0,0-8.62,7.18,7.18,0,0,0-2.7-2.84,8,8,0,0,0-7.77,0,7.18,7.18,0,0,0-2.7,2.84,10,10,0,0,0,0,8.62,7,7,0,0,0,2.71,2.85,7.94,7.94,0,0,0,7.75,0Z"/><polygon class="cls-1" points="731.01 166.61 731.01 168.79 722.09 168.79 722.09 175.71 729.33 175.71 729.33 177.89 722.09 177.89 722.09 187.14 719.41 187.14 719.41 166.61 731.01 166.61"/><polygon class="cls-1" points="762.2 166.61 762.2 168.79 756.6 168.79 756.6 187.14 753.92 187.14 753.92 168.79 748.3 168.79 748.3 166.61 762.2 166.61"/><polygon class="cls-1" points="806.61 166.61 800.66 187.14 797.65 187.14 792.88 170.62 787.94 187.14 784.96 187.17 779.22 166.61 782.08 166.61 786.55 184.01 791.5 166.61 794.5 166.61 799.22 183.96 803.72 166.61 806.61 166.61"/><path class="cls-1" d="M837,182.57h-9l-1.65,4.57h-2.83L831,166.73h3.09l7.4,20.41h-2.83Zm-.76-2.18L832.52,170l-3.71,10.36Z"/><path class="cls-1" d="M870.84,187.14l-4.89-8.4h-3.24v8.4H860V166.61h6.62a8.76,8.76,0,0,1,3.93.8,5.51,5.51,0,0,1,2.41,2.14,6,6,0,0,1-4.1,9l5.16,8.6Zm-8.13-10.55h3.94a4.44,4.44,0,0,0,3.27-1.07,3.84,3.84,0,0,0,1.09-2.87,3.66,3.66,0,0,0-1.07-2.83,4.68,4.68,0,0,0-3.29-1h-3.94Z"/><polygon class="cls-1" points="895.93 168.79 895.93 175.65 903.41 175.65 903.41 177.86 895.93 177.86 895.93 184.93 904.29 184.93 904.29 187.14 893.25 187.14 893.25 166.58 904.29 166.58 904.29 168.79 895.93 168.79"/></svg>